<?xml version="1.0" encoding="UTF-8" standalone="no"?>
<svg width="96px" height="96px" viewBox="0 0 96 96" version="1.1" xmlns="http://www.w3.org/2000/svg" xmlns:xlink="http://www.w3.org/1999/xlink">
    <!-- Generator: Sketch 3.6.1 (26313) - http://www.bohemiancoding.com/sketch -->
    <title>Artboard</title>
    <desc>Created with Sketch.</desc>
    <defs></defs>
    <g id="Page-1" stroke="none" stroke-width="1" fill="none" fill-rule="evenodd">
        <g id="Artboard" fill="#000000">
            <g id="noun_21457_cc">
                <path d="M0.978,50.84 C1.065,52.15 1.209,53.468 1.405,54.761 L11.756,53.193 C11.604,52.189 11.492,51.163 11.424,50.144 L0.978,50.84 L0.978,50.84 Z" id="Shape"></path>
                <path d="M2.539,35.221 L12.639,37.978 C12.908,36.995 13.221,36.011 13.57,35.059 L3.738,31.462 C3.289,32.69 2.886,33.955 2.539,35.221 L2.539,35.221 Z" id="Shape"></path>
                <path d="M34.31,13.66 L30.399,3.95 C29.186,4.438 27.976,4.986 26.805,5.577 L31.521,14.923 C32.428,14.464 33.368,14.04 34.31,13.66 L34.31,13.66 Z" id="Shape"></path>
                <path d="M49.308,11.046 L49.69,0.583 C48.378,0.535 47.053,0.542 45.751,0.603 L46.235,11.061 C47.25,11.013 48.283,11.008 49.308,11.046 L49.308,11.046 Z" id="Shape"></path>
                <path d="M68.688,5.332 C67.508,4.755 66.292,4.223 65.074,3.749 L61.277,13.507 C62.225,13.875 63.171,14.289 64.088,14.737 L68.688,5.332 L68.688,5.332 Z" id="Shape"></path>
                <path d="M92.044,30.955 L82.258,34.673 C82.619,35.622 82.945,36.6 83.225,37.58 L93.289,34.697 C92.928,33.438 92.509,32.178 92.044,30.955 L92.044,30.955 Z" id="Shape"></path>
                <path d="M11.533,17.818 L19.627,24.456 C20.274,23.667 20.963,22.896 21.671,22.165 L14.158,14.875 C13.248,15.813 12.365,16.804 11.533,17.818 L11.533,17.818 Z" id="Shape"></path>
                <path d="M81.446,14.499 L74.007,21.866 C74.727,22.592 75.423,23.356 76.074,24.136 L84.101,17.414 C83.261,16.411 82.369,15.431 81.446,14.499 L81.446,14.499 Z" id="Shape"></path>
                <path d="M84.565,49.793 L84.561,49.85 C84.5,50.872 84.397,51.901 84.251,52.909 L94.615,54.393 C94.8,53.101 94.933,51.784 95.011,50.476 L95.021,50.29 L84.565,49.793 L84.565,49.793 Z" id="Shape"></path>
                <path d="M47.951,21.143 C34.846,21.143 24.184,31.805 24.184,44.911 C24.184,51.359 27.437,57.078 30.309,62.123 C32.782,66.47 35.118,70.576 35.118,74.462 L35.118,84.272 C35.959,90.571 41.484,95.45 48.01,95.45 C54.536,95.45 59.931,90.571 60.772,84.272 L60.772,73.183 C61.247,70.292 63.302,66.769 65.331,63.068 C68.325,57.602 71.719,51.407 71.719,44.911 C71.718,31.805 61.056,21.143 47.951,21.143 L47.951,21.143 Z M48.01,90.72 C44.332,90.72 41.215,88.275 40.198,84.923 L55.82,84.923 C54.805,88.274 51.688,90.72 48.01,90.72 L48.01,90.72 Z M56.173,79.541 L39.847,79.541 L39.847,76.825 L56.173,76.825 L56.173,79.541 L56.173,79.541 Z M61.184,60.796 C59.024,64.735 56.963,68.496 56.288,72.096 L50.317,72.096 L50.317,52.611 C51.278,51.84 51.904,50.672 51.904,49.345 C51.904,47.026 50.025,45.146 47.706,45.146 C45.387,45.146 43.507,47.026 43.507,49.345 C43.507,50.887 44.348,52.222 45.588,52.952 L45.588,72.095 L39.659,72.095 C38.995,67.825 36.674,63.747 34.418,59.783 C31.711,55.026 28.913,50.106 28.913,44.91 C28.913,34.412 37.454,25.871 47.951,25.871 C58.449,25.871 66.989,34.412 66.989,44.91 C66.989,50.195 64.038,55.585 61.184,60.796 L61.184,60.796 Z" id="Shape"></path>
            </g>
        </g>
    </g>
</svg>