<?xml version="1.0" encoding="UTF-8" standalone="no"?>
<svg width="48px" height="73px" viewBox="0 0 48 73" version="1.1" xmlns="http://www.w3.org/2000/svg" xmlns:xlink="http://www.w3.org/1999/xlink">
    <!-- Generator: Sketch 3.7 (28169) - http://www.bohemiancoding.com/sketch -->
    <title>Artboard@2x</title>
    <desc>Created with Sketch.</desc>
    <defs>
        <rect id="path-1" x="0.7" y="0.9" width="47.1" height="71.9"></rect>
        <rect id="path-3" x="0.7" y="0.9" width="47.1" height="71.9"></rect>
    </defs>
    <g id="Page-1" stroke="none" stroke-width="1" fill="none" fill-rule="evenodd">
        <g id="noun_240466_cc">
            <g id="Group">
                <g id="Clipped">
                    <mask id="mask-2" fill="white">
                        <use xlink:href="#path-1"></use>
                    </mask>
                    <g id="b"></g>
                    <path d="M15.9,25.4 L20.5,22.8 L18.2,18.7 L13.6,21.3 L15.9,25.4 L15.9,25.4 Z M24.5,22.1 L13.3,28.6 L23.1,43.8 C29.8,54.3 33.6,60.4 34.6,62.1 C35.5,63.8 36.2,65.2 36.7,66.3 C36.8,66.6 37,67 37.2,67.5 C37.3,67.8 37.5,68.2 37.7,68.5 C37.7,68.7 37.8,68.8 37.9,69 L47.3,63.6 C47.2,63.5 47.1,63.3 47,63.2 C46.8,62.9 46.5,62.6 46.3,62.3 C46,61.9 45.7,61.5 45.5,61.3 C44.8,60.3 43.9,59 42.9,57.3 C41.9,55.6 38.5,49.3 32.8,38.2 L24.5,22.1 L24.5,22.1 Z M43.2,72.9 L47.8,70.2 L45.5,66.2 L40.9,68.9 L43.2,72.9 L43.2,72.9 Z" id="Shape" fill="#000000" mask="url(#mask-2)"></path>
                </g>
                <g id="Clipped">
                    <mask id="mask-4" fill="white">
                        <use xlink:href="#path-3"></use>
                    </mask>
                    <g id="b"></g>
                    <path d="M18.7,5.8 C18.6,5.5 18.4,5.3 18.3,5.1 C17,3.2 15.2,1.9 12.9,1.3 C10.3,0.6 7.9,0.9 5.6,2.3 C3.3,3.6 1.8,5.6 1.1,8.1 C0.5,10.3 0.7,12.4 1.6,14.4 C1.7,14.7 1.9,15.1 2.1,15.4 C2.3,15.7 2.5,16 2.7,16.3 L6.1,22.2 L7.8,21.2 L8.7,22.7 L21.8,15.1 L20.9,13.6 L22.6,12.6 L19.1,6.5 C18.9,6.3 18.8,6 18.7,5.8" id="Shape" fill="#000000" mask="url(#mask-4)"></path>
                </g>
            </g>
        </g>
        <g id="Artboard"></g>
    </g>
</svg>