<?xml version="1.0" encoding="UTF-8" standalone="no"?>
<svg width="100px" height="100px" viewBox="0 0 100 100" version="1.1" xmlns="http://www.w3.org/2000/svg" xmlns:xlink="http://www.w3.org/1999/xlink">
    <!-- Generator: Sketch 3.7 (28169) - http://www.bohemiancoding.com/sketch -->
    <title>Artboard</title>
    <desc>Created with Sketch.</desc>
    <defs></defs>
    <g id="Page-1" stroke="none" stroke-width="1" fill="none" fill-rule="evenodd">
        <g id="Artboard" fill="#000000">
            <g id="noun_1049_cc">
                <path d="M99.518,43.136 C99.273,41.363 98.94,39.619 98.514,37.909 C97.292,33.01 95.353,28.392 92.803,24.181 C91.699,22.357 90.472,20.617 89.152,18.954 C79.983,7.418 65.847,0 50,0 C34.154,0 20.016,7.418 10.849,18.955 C9.528,20.617 8.302,22.358 7.199,24.182 C4.649,28.393 2.708,33.011 1.487,37.91 C1.061,39.619 0.728,41.364 0.484,43.137 C0.173,45.381 0,47.67 0,50 C0,52.33 0.173,54.619 0.483,56.864 C0.728,58.637 1.061,60.382 1.486,62.091 C2.708,66.991 4.648,71.608 7.198,75.82 C8.302,77.644 9.528,79.384 10.848,81.047 C20.016,92.582 34.154,100 50,100 C65.846,100 79.984,92.582 89.152,81.045 C90.472,79.383 91.699,77.643 92.803,75.818 C95.352,71.606 97.292,66.99 98.514,62.089 C98.94,60.38 99.273,58.636 99.518,56.862 C99.827,54.618 100,52.329 100,50 C100,47.671 99.827,45.381 99.518,43.136 L99.518,43.136 Z M35.97,7.49 C33.382,10.538 31.11,14.421 29.243,18.955 L17.783,18.955 C22.773,13.778 28.993,9.799 35.97,7.49 L35.97,7.49 Z M13.455,24.181 L27.361,24.181 C26.053,28.379 25.063,32.992 24.443,37.909 L6.898,37.909 C8.297,32.929 10.536,28.3 13.455,24.181 L13.455,24.181 Z M5.227,50 C5.227,47.667 5.408,45.375 5.753,43.136 L23.936,43.136 C23.781,45.377 23.694,47.665 23.694,50 C23.694,52.335 23.781,54.623 23.936,56.864 L5.753,56.864 C5.407,54.625 5.227,52.334 5.227,50 L5.227,50 Z M13.455,75.818 C10.537,71.699 8.297,67.07 6.898,62.089 L24.442,62.089 C25.062,67.007 26.053,71.619 27.36,75.818 L13.455,75.818 L13.455,75.818 Z M17.784,81.045 L29.244,81.045 C31.11,85.579 33.383,89.461 35.971,92.51 C28.993,90.2 22.774,86.223 17.784,81.045 L17.784,81.045 Z M47.387,94.399 C42.595,93.075 38.247,88.178 34.976,81.045 L47.387,81.045 L47.387,94.399 L47.387,94.399 Z M47.387,75.818 L32.91,75.818 C31.506,71.684 30.423,67.049 29.742,62.089 L47.388,62.089 C47.387,67.028 47.387,71.648 47.387,75.818 L47.387,75.818 Z M47.387,50 L47.387,56.864 L29.181,56.864 C29.01,54.62 28.919,52.327 28.919,50 C28.919,47.672 29.009,45.38 29.181,43.136 L47.387,43.136 L47.387,50 L47.387,50 Z M47.387,37.909 L29.741,37.909 C30.422,32.949 31.506,28.314 32.909,24.181 L47.387,24.181 L47.387,37.909 L47.387,37.909 Z M47.387,18.955 L34.976,18.955 C38.248,11.82 42.595,6.925 47.387,5.6 L47.387,18.955 L47.387,18.955 Z M86.545,24.181 C89.464,28.3 91.702,32.929 93.102,37.909 L75.558,37.909 C74.937,32.992 73.947,28.379 72.639,24.181 L86.545,24.181 L86.545,24.181 Z M82.217,18.955 L70.757,18.955 C68.891,14.421 66.617,10.538 64.03,7.491 C71.007,9.799 77.227,13.778 82.217,18.955 L82.217,18.955 Z M52.613,5.6 C57.406,6.925 61.753,11.82 65.024,18.954 L52.613,18.954 L52.613,5.6 L52.613,5.6 Z M52.613,24.181 L67.09,24.181 C68.495,28.314 69.578,32.949 70.259,37.909 L52.613,37.909 L52.613,24.181 L52.613,24.181 Z M52.613,43.136 L70.819,43.136 C70.989,45.38 71.08,47.672 71.08,50 C71.08,52.328 70.989,54.621 70.819,56.864 L52.613,56.864 L52.613,43.136 L52.613,43.136 Z M52.613,62.09 L70.259,62.09 C69.578,67.05 68.495,71.685 67.09,75.819 L52.613,75.819 L52.613,62.09 L52.613,62.09 Z M52.613,94.399 L52.613,81.045 L65.024,81.045 C61.753,88.179 57.406,93.074 52.613,94.399 L52.613,94.399 Z M64.03,92.51 C66.617,89.461 68.89,85.578 70.756,81.045 L82.216,81.045 C77.226,86.222 71.007,90.2 64.03,92.51 L64.03,92.51 Z M86.545,75.818 L72.638,75.818 C73.947,71.62 74.937,67.007 75.558,62.089 L93.102,62.089 C91.702,67.07 89.464,71.699 86.545,75.818 L86.545,75.818 Z M94.247,56.863 L76.063,56.863 C76.219,54.622 76.306,52.335 76.306,49.999 C76.306,47.665 76.219,45.376 76.063,43.135 L94.247,43.135 C94.593,45.373 94.773,47.665 94.773,49.999 C94.773,52.334 94.593,54.625 94.247,56.863 L94.247,56.863 Z" id="Shape"></path>
            </g>
        </g>
    </g>
</svg>