<?xml version="1.0" encoding="UTF-8" standalone="no"?>
<svg width="91px" height="88px" viewBox="0 0 91 88" version="1.1" xmlns="http://www.w3.org/2000/svg" xmlns:xlink="http://www.w3.org/1999/xlink">
    <!-- Generator: Sketch 3.7 (28169) - http://www.bohemiancoding.com/sketch -->
    <title>Artboard</title>
    <desc>Created with Sketch.</desc>
    <defs></defs>
    <g id="Page-1" stroke="none" stroke-width="1" fill="none" fill-rule="evenodd">
        <g id="Artboard" fill="#000000">
            <g id="noun_315092_cc">
                <g id="Group">
                    <path d="M65.3,57.9 C65.8,58.8 65.7,59.8 65,61 C64.6,61.6 64.3,62.3 64,62.9 C62.6,65.7 61.3,68.4 54.6,68.9 C48.1,69.4 41,73.4 38.6,76.7 C52.3,76.6 54.2,79.7 66.5,79.1 C63.9,66.8 67.8,59.8 71,56.4 L69.6,56.4 C66.8,56.4 64.3,56.2 61.9,55.7 C61.9,55.8 61.9,55.9 61.8,56 C62.9,56.3 64.6,56.7 65.3,57.9 L65.3,57.9 Z" id="Shape"></path>
                    <path d="M6.6,76.7 C11,77.3 18.4,77.8 29.8,77.1 C29.3,74.7 28.1,69.4 25.8,65.6 C23.7,62.2 10.2,57.8 3.1,55.7 C2.1,59.2 1.2,63.4 1,70 C0.9,73.4 3.3,76.3 6.6,76.7 L6.6,76.7 Z" id="Shape"></path>
                    <path d="M67.8,79.1 C68.1,79.1 68.5,79.1 68.8,79 C78.7,78.2 84.4,75.1 87.3,72.7 C89.3,71.1 89.9,68.3 88.7,66 C86.8,62.4 82.5,57.4 72.6,56.7 C69.7,59.2 64.9,65.8 67.8,79.1 L67.8,79.1 Z" id="Shape"></path>
                    <path d="M89.3,72.7 C85.5,80.3 64.3,83.2 53.9,80.3 C43.4,77.4 34.1,79 28.5,79.2 C22.9,79.4 20,79.6 11.6,79.2 C3.2,78.8 1,77.4 1,77.4 L1.7,84.2 C1.8,85.4 2.7,86.4 4,86.7 C15.2,88.8 26,87.1 29.2,86.5 C29.8,86.4 30.2,85.9 30.2,85.3 L30.2,82.9 L36.1,82.3 C55.4,82.8 46.2,85.5 64.4,85.4 C82.6,85.1 91,79 91,77.1 C91,75.1 89.3,72.7 89.3,72.7 L89.3,72.7 Z" id="Shape"></path>
                    <path d="M35.8,38.9 L35.8,39.3 C35.8,40.2 36.5,41 37.5,41 L38,41 C39.7,41 42.1,40.7 44.3,39.5 C44.9,39.2 45.2,38.6 45.2,38 C45.2,37 44.4,36.3 43.5,36.3 C43.4,36.3 43.2,36.3 43,36.4 C41.7,36.8 39.8,37.1 37.5,37.2 C36.5,37.2 35.8,38 35.8,38.9 L35.8,38.9 Z" id="Shape"></path>
                    <path d="M40.7,47.7 L40.8,48.1 C41,48.9 41.6,49.5 42.3,49.5 L42.5,49.5 C43.8,49.2 45.8,48.5 47.5,46.7 C47.9,46.3 48,45.7 47.8,45.1 C47.6,44.3 46.9,43.7 46.3,43.7 C46.1,43.7 45.9,43.8 45.7,43.9 C44.8,44.5 43.4,45.2 41.6,45.8 C40.8,45.9 40.4,46.8 40.7,47.7 L40.7,47.7 Z" id="Shape"></path>
                    <path d="M51.9,49.4 C51.2,50.2 50,51.3 48.4,52.3 C47.8,52.7 47.6,53.7 48.1,54.5 L48.3,54.9 C48.6,55.5 49.2,55.9 49.8,55.9 C50,55.9 50.2,55.9 50.3,55.8 C51.5,55.2 53.3,54 54.4,51.8 C54.6,51.3 54.6,50.7 54.3,50.1 C53.9,49.5 53.4,49.1 52.8,49.1 C52.4,49 52.1,49.2 51.9,49.4 L51.9,49.4 Z" id="Shape"></path>
                    <path d="M55.8,59.8 L56.1,60.1 C56.5,60.4 56.9,60.5 57.3,60.5 C57.7,60.5 58.1,60.4 58.3,60.1 C59.2,59.1 60.3,57.3 60.5,54.8 C60.5,54.3 60.2,53.7 59.7,53.3 C59.3,53 58.9,52.9 58.5,52.9 C58,52.9 57.5,53.2 57.3,53.7 C56.9,54.8 56.3,56.2 55.2,57.7 C54.9,58.3 55.1,59.3 55.8,59.8 L55.8,59.8 Z" id="Shape"></path>
                    <polygon id="Shape" points="47.3 21.6 51.1 15.4 49.7 14.5 45.6 20.5"></polygon>
                    <path d="M44.8,28.8 C44.8,28.8 42.3,32.4 47.1,38.7 C51.9,45 54.6,39.5 52.8,37 C51,34.5 49.7,34.8 47.1,27.6 C47.1,27.7 46.5,28.7 44.8,28.8 L44.8,28.8 Z M49.8,37 C50.1,37.2 50.4,37.6 50.4,37.9 C50.4,38.2 50.4,38.5 50.2,38.6 C49.6,39 47.4,37.1 46.3,34.1 C45.2,31.1 46.3,31.8 46.3,31.8 C46.3,31.8 47.4,35.2 49.8,37 L49.8,37 Z" id="Shape"></path>
                    <path d="M40.9,26.5 C40.8,26.5 40.6,26.5 40.4,26.6 C39.1,27 37.2,27.3 34.9,27.4 C34,27.4 33.2,28.2 33.2,29.1 L33.2,29.5 C33.2,30.4 33.9,31.2 34.9,31.2 L35.4,31.2 C37.1,31.2 39.5,30.9 41.7,29.7 C42.3,29.4 42.6,28.8 42.6,28.2 C42.7,27.2 41.9,26.5 40.9,26.5 L40.9,26.5 Z" id="Shape"></path>
                    <path d="M43,26.5 L44,27.7 C44,27.7 46.4,27.9 46.5,26.5 C46.6,25.1 45.7,24.7 45.7,24.7 C45.7,24.7 47.2,24.2 47,23.2 C46.8,22.5 45.4,22.1 44.6,21.9 C44.2,21.8 43.8,22 43.5,22.3 C43.1,22.8 42.8,23.4 43.2,24.1 C43.2,24 42,25.3 43,26.5 L43,26.5 Z" id="Shape"></path>
                    <path d="M5.6,41.4 C5.7,47.1 4.6,50.3 3.4,54.4 C9.2,56.1 24.4,60.8 27,64.9 C29.5,69 30.8,74.6 31.2,77 C33.3,76.9 35.2,76.8 37,76.7 C39.3,72.6 47.7,68 54.6,67.5 C60.5,67.1 61.5,65 62.9,62.2 C63.2,61.5 63.6,60.9 64,60.2 C64.4,59.5 64.5,58.9 64.3,58.5 C63.9,57.8 62.6,57.5 61.6,57.4 C61.1,58.9 60.3,60.1 59.6,60.9 C59.1,61.5 58.4,61.8 57.5,61.8 C56.8,61.8 56.1,61.5 55.5,61.1 L55,60.9 C53.7,59.9 53.3,58.1 54.2,56.9 C55,55.8 55.5,54.7 55.9,53.9 C55.6,53.8 55.3,53.6 55,53.4 C53.8,55.1 52.2,56.2 51.1,56.8 C50.7,57 50.3,57.1 49.9,57.1 C48.8,57.1 47.8,56.5 47.2,55.4 L47,55 C46.2,53.5 46.5,51.8 47.8,51 C48.4,50.6 49,50.2 49.4,49.9 C48.8,49.4 48.2,48.9 47.6,48.4 C46,49.8 44.2,50.4 42.8,50.7 C42.6,50.7 42.5,50.8 42.3,50.8 C41,50.8 39.8,49.8 39.5,48.4 L39.4,48 C39,46.4 39.8,44.8 41.2,44.3 C41.9,44.1 42.6,43.8 43.1,43.6 C42.6,43 42.2,42.4 41.8,41.9 C40.3,42.3 39,42.4 38,42.4 L37.5,42.4 C35.8,42.3 34.5,41 34.5,39.3 L34.5,38.9 C34.5,37.2 35.8,35.9 37.5,35.8 L38,35.8 C37.6,34.8 37.3,33.7 37.2,32.5 C36.6,32.6 36,32.6 35.5,32.6 L35,32.6 C33.3,32.5 32,31.2 32,29.5 L32,29.1 C32,27.4 33.3,26.1 35,26 C35.9,26 36.8,25.9 37.6,25.8 C38.7,17.9 41.6,8.8 40.4,4.4 C38.5,-1.4 12.8,-0.1 3.9,2.8 C2.2,3.4 1.1,5.1 1.4,6.9 C2.5,13.5 5.4,31.7 5.6,41.4 L5.6,41.4 Z M35.1,6.1 C36.2,6.1 37,7 37,8 C37,9 36.1,9.9 35.1,9.9 C34,9.9 33.2,9 33.2,8 C33.2,7 34.1,6.1 35.1,6.1 L35.1,6.1 Z M33.2,16.1 C34.3,16.1 35.1,17 35.1,18 C35.1,19.1 34.2,19.9 33.2,19.9 C32.2,19.9 31.3,19 31.3,18 C31.3,17 32.1,16.1 33.2,16.1 L33.2,16.1 Z" id="Shape"></path>
                    <path d="M40.1,20.3 C39.7,22.2 39.3,24 39.1,25.5 C39.5,25.4 39.8,25.3 40.1,25.3 C40.4,25.2 40.6,25.2 40.9,25.2 L41.1,25.2 C41.6,22.4 42.3,19.3 43.2,16.1 L46.4,5.6 L41.7,5.4 C41.8,5.2 43,7.5 40.1,20.3 L40.1,20.3 Z" id="Shape"></path>
                    <path d="M40.3,31.8 C39.8,32 39.3,32.1 38.9,32.2 C39.2,35.3 40.1,36.3 40.1,36.3 C40.1,36.3 40.1,34.6 40.3,31.8 L40.3,31.8 Z" id="Shape"></path>
                </g>
            </g>
        </g>
    </g>
</svg>